<svg xmlns="http://www.w3.org/2000/svg" width="300" height="300" viewBox="0 0 300 300">
  <g fill="#6d28f5" fill-opacity="0.065">
    <!-- buku -->
    <g transform="translate(20,20)">
      <rect x="0" y="0" width="60" height="44" rx="5"/>
      <rect x="27" y="0" width="6" height="44"/>
    </g>
    <!-- pensil -->
    <g transform="translate(215,15) rotate(40)">
      <rect x="0" y="0" width="14" height="66" rx="5"/>
      <polygon points="0,66 14,66 7,86"/>
    </g>
    <!-- topi wisuda -->
    <g transform="translate(70,170)">
      <polygon points="38,0 77,16 38,32 0,16"/>
      <rect x="26" y="19" width="25" height="16" rx="3"/>
      <line x1="70" y1="16" x2="70" y2="42" stroke="#6d28f5" stroke-width="5" stroke-linecap="round"/>
      <circle cx="70" cy="46" r="5"/>
    </g>
    <!-- bintang sparkle -->
    <g transform="translate(215,215)">
      <path d="M22 0 L27 18 L45 22 L27 27 L22 45 L18 27 L0 22 L18 18 Z"/>
    </g>
    <!-- penggaris -->
    <g transform="translate(140,105) rotate(-20)">
      <rect x="0" y="0" width="74" height="19" rx="3"/>
      <rect x="10" y="0" width="3" height="10"/>
      <rect x="22" y="0" width="3" height="10"/>
      <rect x="35" y="0" width="3" height="10"/>
      <rect x="48" y="0" width="3" height="10"/>
      <rect x="61" y="0" width="3" height="10"/>
    </g>
    <!-- bintang kecil -->
    <g transform="translate(120,255)">
      <path d="M16 0 L20 12 L32 16 L20 20 L16 32 L12 20 L0 16 L12 12 Z"/>
    </g>
  </g>
</svg>
